<?xml version="1.0" encoding="utf-8"?>
<!-- Generator: Adobe Illustrator 26.3.1, SVG Export Plug-In . SVG Version: 6.00 Build 0)  -->
<svg version="1.1" id="Layer_1" xmlns="http://www.w3.org/2000/svg" xmlns:xlink="http://www.w3.org/1999/xlink" x="0px" y="0px"
	 width="32px" height="32px" viewBox="0 0 32 32" style="enable-background:new 0 0 32 32;" xml:space="preserve">
<style type="text/css">
	.st0{fill:#010101;}
</style>
<path class="st0" d="M25,16c0,4.971-4.029,9-9,9s-9-4.029-9-9s4.029-9,9-9S25,11.029,25,16z M16,10c-3.314,0-6,2.686-6,6
	s2.686,6,6,6s6-2.686,6-6S19.314,10,16,10z M5,15H2c-0.552,0-1,0.448-1,1v0c0,0.552,0.448,1,1,1h3c0.552,0,1-0.448,1-1v0
	C6,15.448,5.552,15,5,15z M7.515,23.071l-2.121,2.121c-0.391,0.391-0.391,1.024,0,1.414h0c0.391,0.391,1.024,0.391,1.414,0
	l2.121-2.121c0.391-0.391,0.391-1.024,0-1.414h0C8.538,22.681,7.905,22.681,7.515,23.071z M15,27v3c0,0.552,0.448,1,1,1h0
	c0.552,0,1-0.448,1-1v-3c0-0.552-0.448-1-1-1h0C15.448,26,15,26.448,15,27z M23.071,24.485l2.121,2.121
	c0.391,0.391,1.024,0.391,1.414,0l0,0c0.391-0.391,0.391-1.024,0-1.414l-2.121-2.121c-0.391-0.391-1.024-0.391-1.414,0l0,0
	C22.681,23.462,22.681,24.095,23.071,24.485z M27,17h3c0.552,0,1-0.448,1-1v0c0-0.552-0.448-1-1-1h-3c-0.552,0-1,0.448-1,1v0
	C26,16.552,26.448,17,27,17z M24.485,8.929l2.121-2.121c0.391-0.391,0.391-1.024,0-1.414v0c-0.391-0.391-1.024-0.391-1.414,0
	l-2.121,2.121c-0.391,0.391-0.391,1.024,0,1.414v0C23.462,9.319,24.095,9.319,24.485,8.929z M17,5V2c0-0.552-0.448-1-1-1h0
	c-0.552,0-1,0.448-1,1v3c0,0.552,0.448,1,1,1h0C16.552,6,17,5.552,17,5z M8.929,7.515L6.808,5.393c-0.391-0.391-1.024-0.391-1.414,0
	l0,0c-0.391,0.391-0.391,1.024,0,1.414l2.121,2.121c0.391,0.391,1.024,0.391,1.414,0l0,0C9.319,8.538,9.319,7.905,8.929,7.515z"/>
</svg>
