<?xml version="1.0" encoding="utf-8"?>
<!-- Generator: Adobe Illustrator 26.3.1, SVG Export Plug-In . SVG Version: 6.00 Build 0)  -->
<svg version="1.1" id="Layer_1" xmlns="http://www.w3.org/2000/svg" xmlns:xlink="http://www.w3.org/1999/xlink" x="0px" y="0px"
	 width="32px" height="32px" viewBox="0 0 32 32" style="enable-background:new 0 0 32 32;" xml:space="preserve">
<style type="text/css">
	.st0{fill:#010101;}
</style>
<path class="st0" d="M16,27C9.935,27,5,22.065,5,16S9.935,5,16,5c0.212,0,0.42,0.014,0.628,0.028l0.108,0.007
	c0.617,0.042,1.146,0.458,1.331,1.048c0.186,0.591-0.012,1.234-0.495,1.621C16.255,8.757,15.5,10.323,15.5,12
	c0,3.033,2.468,5.5,5.5,5.5c1.262,0,2.45-0.419,3.438-1.211c0.482-0.387,1.153-0.438,1.689-0.129
	c0.536,0.31,0.827,0.916,0.732,1.528C26.024,23.083,21.458,27,16,27z"/>
</svg>
