<?xml version="1.0" encoding="utf-8"?>
<!-- Generator: Adobe Illustrator 26.3.1, SVG Export Plug-In . SVG Version: 6.00 Build 0)  -->
<svg version="1.1" id="Layer_1" xmlns="http://www.w3.org/2000/svg" xmlns:xlink="http://www.w3.org/1999/xlink" x="0px" y="0px"
	 width="32px" height="32px" viewBox="0 0 32 32" style="enable-background:new 0 0 32 32;" xml:space="preserve">
<style type="text/css">
	.st0{fill:#010101;}
</style>
<path class="st0" d="M26,16L26,16c0-0.552,0.448-1,1-1h3c0.552,0,1,0.448,1,1v0c0,0.552-0.448,1-1,1h-3C26.448,17,26,16.552,26,16z
	 M23.071,24.485l2.121,2.121c0.391,0.391,1.024,0.391,1.414,0l0,0c0.391-0.391,0.391-1.024,0-1.414l-2.121-2.121
	c-0.391-0.391-1.024-0.391-1.414,0l0,0C22.681,23.462,22.681,24.095,23.071,24.485z M24.485,8.929l2.121-2.121
	c0.391-0.391,0.391-1.024,0-1.414v0c-0.391-0.391-1.024-0.391-1.414,0l-2.121,2.121c-0.391,0.391-0.391,1.024,0,1.414v0
	C23.462,9.319,24.095,9.319,24.485,8.929z M17,5V2c0-0.552-0.448-1-1-1h0c-0.552,0-1,0.448-1,1v3c0,0.552,0.448,1,1,1h0
	C16.552,6,17,5.552,17,5z M8.929,7.515L6.808,5.393c-0.391-0.391-1.024-0.391-1.414,0l0,0c-0.391,0.391-0.391,1.024,0,1.414
	l2.121,2.121c0.391,0.391,1.024,0.391,1.414,0l0,0C9.319,8.538,9.319,7.905,8.929,7.515z M25.158,18.44
	c0.875-3.269-0.061-6.778-2.44-9.158c-2.38-2.38-5.889-3.315-9.158-2.441c-0.8,0.214-1.275,1.037-1.062,1.837
	c0.215,0.8,1.039,1.276,1.837,1.062c2.237-0.6,4.637,0.039,6.262,1.664s2.262,4.024,1.663,6.261c-0.214,0.8,0.261,1.623,1.062,1.837
	c0.13,0.034,0.26,0.051,0.389,0.051C24.372,19.553,24.979,19.11,25.158,18.44z M22.228,21.622c-0.153-0.392-0.532-0.643-0.951-0.637
	L21,21c-5.514,0-10-4.486-9.995-10.098l0.009-0.169c0.013-0.42-0.24-0.804-0.631-0.959s-0.837-0.047-1.117,0.267
	C7.805,11.692,7,13.808,7,16c0,4.963,4.038,9,9,9c2.193,0,4.31-0.805,5.959-2.266C22.272,22.456,22.38,22.012,22.228,21.622z"/>
</svg>
