<?xml version="1.0" encoding="UTF-8"?>
<svg id="copy-2" xmlns="http://www.w3.org/2000/svg" viewBox="0 0 32 32">
  <defs>
    <style>
      .st0 {
        fill: #010101;
        stroke-width: 0px;
      }
    </style>
  </defs>
  <path class="st0" d="M26.71,8h-6.71V3.33c0-.73-.58-1.33-1.29-1.33h-8.71l-6,6v14.67c0,.73.58,1.33,1.29,1.33h6.71v4.67c0,.73.58,1.33,1.29,1.33h13.71c.55,0,1-.45,1-1V9.33c0-.73-.58-1.33-1.29-1.33ZM6,22v-12h5.11c.49,0,.89-.4.89-.89v-5.11h6v4l-6,6v8h-6ZM26,28h-12v-12h5.11c.49,0,.89-.4.89-.89v-5.11h6v18Z"/>
</svg>
