<?xml version="1.0" encoding="utf-8"?>
<svg version="1.1" id="Calque_1" xmlns="http://www.w3.org/2000/svg" xmlns:xlink="http://www.w3.org/1999/xlink" x="0px" y="0px"
	 width="32px" height="32px" viewBox="0 0 32 32" style="enable-background:new 0 0 32 32;" xml:space="preserve">
<style type="text/css">
	.st0{fill:#010101;}
</style>
<path class="st0" d="M8,4c-3.3,0-6,2.7-6,6s2.7,6,6,6s6-2.7,6-6S11.3,4,8,4z M8,14c-2.2,0-4-1.8-4-4s1.8-4,4-4s4,1.8,4,4
	S10.2,14,8,14z"/>
<path class="st0" d="M21,19l-4,4l5,5c1.4,1.5,2.8,2,4,2c1.4,0,2.4-0.4,3-0.9c0.7-0.5,1-1.1,1-1.1L21,19z"/>
<path class="st0" d="M30,6c0,0-1-2-4-2c-1.2,0-2.6,0.6-4,2L9.7,18.3C9.2,18.1,8.6,18,8,18c-3.3,0-6,2.7-6,6s2.7,6,6,6s6-2.7,6-6
	c0-0.6-0.1-1.2-0.3-1.7L30,6z M8,28c-2.2,0-4-1.8-4-4s1.8-4,4-4s4,1.8,4,4S10.2,28,8,28z"/>
</svg>
